<svg xmlns="http://www.w3.org/2000/svg" width="40.5" height="40.5" viewBox="0 0 40.5 40.5">
  <g id="bnb-busd" transform="translate(-1017 -562)">
    <g id="binance-usd" transform="translate(1017 562)">
      <g id="Group_1" data-name="Group 1">
        <path id="Path_2" data-name="Path 2" d="M12,0A12,12,0,1,1,0,12,12,12,0,0,1,12,0Z" fill="#f0b90b"/>
      </g>
      <g id="Group_2" data-name="Group 2" transform="translate(4.306 4.265)">
        <path id="Path_3" data-name="Path 3" d="M1047.067,1062.264l-1.867-1.867,7.8-7.8,1.866,1.867Z" transform="translate(-1042.339 -1049.647)" fill="#fff"/>
        <path id="Path_4" data-name="Path 4" d="M1464.167,1479.463l-1.867-1.866,7.8-7.8,1.866,1.866Z" transform="translate(-1456.579 -1463.987)" fill="#fff"/>
        <path id="Path_5" data-name="Path 5" d="M1060.467,628.8l-1.867-1.867,4.936-4.936,1.867,1.867Z" transform="translate(-1055.647 -622)" fill="#fff"/>
        <path id="Path_6" data-name="Path 6" d="M629.867,1503.933,628,1502.066l1.867-1.866,1.867,1.866Z" transform="translate(-628 -1494.178)" fill="#fff"/>
      </g>
    </g>
    <g id="bnb" transform="translate(1030.229 575.229)">
      <circle id="Ellipse_1" data-name="Ellipse 1" cx="14" cy="14" r="14" transform="translate(-1.229 -1.229)" fill="#f3ba2f" stroke="#fff" stroke-width="1"/>
      <path id="Path_1" data-name="Path 1" d="M10.836,12.646l3.071-3.071,3.073,3.073,1.787-1.787L13.908,6,9.049,10.858ZM6,13.908l1.787-1.787,1.787,1.787L7.787,15.695Zm4.836,1.262,3.071,3.071,3.073-3.073,1.787,1.786-4.86,4.861L9.049,16.957l0,0,1.789-1.785Zm7.4-1.262,1.787-1.787,1.787,1.787-1.787,1.787Zm-2.521,0h0v0l-1.814,1.814L12.1,13.911l0,0,0,0,.317-.318.154-.154,1.34-1.34,1.813,1.813Z" transform="translate(-1.136 -1.136)" fill="#fff"/>
    </g>
  </g>
</svg>
