<svg xmlns="http://www.w3.org/2000/svg" width="40" height="40" viewBox="0 0 40 40">
  <g id="squid-busd" transform="translate(-1017 -562)">
    <g id="binance-usd" transform="translate(1017 562)">
      <g id="Group_1" data-name="Group 1">
        <path id="Path_2" data-name="Path 2" d="M12,0A12,12,0,1,1,0,12,12,12,0,0,1,12,0Z" fill="#f0b90b"/>
      </g>
      <g id="Group_2" data-name="Group 2" transform="translate(4.306 4.265)">
        <path id="Path_3" data-name="Path 3" d="M1047.07,1062.26l-1.867-1.867,7.8-7.8,1.866,1.867Z" transform="translate(-1042.339 -1049.647)" fill="#fff"/>
        <path id="Path_4" data-name="Path 4" d="M1464.17,1479.46l-1.867-1.866,7.8-7.8,1.866,1.866Z" transform="translate(-1456.579 -1463.987)" fill="#fff"/>
        <path id="Path_5" data-name="Path 5" d="M1060.47,628.8l-1.867-1.867,4.936-4.936,1.867,1.867Z" transform="translate(-1055.647 -622)" fill="#fff"/>
        <path id="Path_6" data-name="Path 6" d="M629.867,1503.93,628,1502.07l1.867-1.866,1.867,1.866Z" transform="translate(-628 -1494.178)" fill="#fff"/>
      </g>
    </g>
    <g id="Ellipse_3" data-name="Ellipse 3" transform="translate(1029 574)" fill="#005390" stroke="#fff" stroke-width="1">
      <circle cx="14" cy="14" r="14" stroke="none"/>
      <circle cx="14" cy="14" r="13.5" fill="none"/>
    </g>
    <g id="squid" transform="translate(1032.499 579.155)">
      <path id="Path_1" data-name="Path 1" d="M10.3.063,6.675,2.614a.336.336,0,0,0,.045.578l1.651.822-1.022.671V7.26a2.39,2.39,0,0,1,.844-.151,1.775,1.775,0,0,1,1.946,1.526,1.775,1.775,0,0,1-1.946,1.526,2.391,2.391,0,0,1-.844-.151V10.4h0a1.007,1.007,0,0,1-.276.728,1.043,1.043,0,0,1-1.459.051,1.009,1.009,0,0,1-.328-.707h0v-2.7s0,0,0,0V7.618H5.266L5.26,7.572v0l0-.031c-.017-.118-.044-.281-.083-.463a4.009,4.009,0,0,0-.4-1.163A3.082,3.082,0,0,0,3.733,4.97a2.679,2.679,0,0,0-1.4-.352H1.65a1.881,1.881,0,0,0-.979.216,1.248,1.248,0,0,0-.549.61,1.5,1.5,0,0,0-.113.71,1.4,1.4,0,0,0,.277.651,1.346,1.346,0,0,0,.522.458,1.579,1.579,0,0,0,.664.135,1.5,1.5,0,0,0,.975-.437,2.978,2.978,0,0,0,.269-.274c.032-.037.058-.069.076-.092l.021-.027,0,0,0,0,0,0h0l-.293-.208.293.208a.352.352,0,0,0-.082-.5.365.365,0,0,0-.5.08L1.3,5.355A2.019,2.019,0,0,1,1.65,5.33h.68a1.954,1.954,0,0,1,1.023.246,2.4,2.4,0,0,1,.791.7,3.359,3.359,0,0,1,.319.946c.035.165.06.314.075.422.008.054.014.1.017.126l0,.025v2.777h.005A1.719,1.719,0,0,0,5.118,11.7,1.776,1.776,0,0,0,7.6,11.612a1.72,1.72,0,0,0,.437-.84h.654v5.014a1.989,1.989,0,0,1-.271.818,2.033,2.033,0,0,1-1,.847,2.073,2.073,0,0,1-1.316.071,2.043,2.043,0,0,1-1.086-.735,1.986,1.986,0,0,1,.042-2.455,2.046,2.046,0,0,1,1.11-.7,2.073,2.073,0,0,1,.959,0,.437.437,0,0,0,.505-.219.331.331,0,0,0-.2-.462A2.833,2.833,0,0,0,6,12.919a2.8,2.8,0,0,0-1.516.954,2.713,2.713,0,0,0-.057,3.354,2.791,2.791,0,0,0,1.483,1,2.832,2.832,0,0,0,1.8-.1,2.778,2.778,0,0,0,1.363-1.157,2.716,2.716,0,0,0,.374-1.153v-.018l.01-5.034H10.1V19.35a.342.342,0,0,0,.344.339h.069a.342.342,0,0,0,.344-.339V10.772h.62v5.052h.01a2.717,2.717,0,0,0,.374,1.153,2.778,2.778,0,0,0,1.363,1.157,2.832,2.832,0,0,0,1.8.1,2.791,2.791,0,0,0,1.483-1,2.713,2.713,0,0,0-.057-3.354,2.8,2.8,0,0,0-1.516-.954,2.833,2.833,0,0,0-1.442.03.331.331,0,0,0-.2.462.437.437,0,0,0,.5.219,2.074,2.074,0,0,1,.959,0,2.046,2.046,0,0,1,1.11.7,1.986,1.986,0,0,1,.042,2.455,2.043,2.043,0,0,1-1.086.735,2.073,2.073,0,0,1-1.316-.071,2.033,2.033,0,0,1-1-.847,1.989,1.989,0,0,1-.271-.818V10.772h.727a1.72,1.72,0,0,0,.434.823,1.776,1.776,0,0,0,2.483.086,1.719,1.719,0,0,0,.554-1.129h.005V7.774l0-.025c0-.029.009-.072.017-.126.016-.107.041-.256.075-.422a3.359,3.359,0,0,1,.319-.946,2.4,2.4,0,0,1,.791-.7,1.954,1.954,0,0,1,1.023-.246h.68a2.016,2.016,0,0,1,.354.025l-.939.783a.365.365,0,0,0-.5-.08.352.352,0,0,0-.082.5l.293-.208-.293.208h0l0,0,0,0,0,0,.021.027c.018.023.044.054.076.092a2.975,2.975,0,0,0,.269.274,1.5,1.5,0,0,0,.975.437,1.579,1.579,0,0,0,.664-.135,1.346,1.346,0,0,0,.522-.458,1.4,1.4,0,0,0,.277-.651,1.5,1.5,0,0,0-.113-.71,1.248,1.248,0,0,0-.549-.61,1.881,1.881,0,0,0-.979-.216h-.68a2.679,2.679,0,0,0-1.4.352,3.082,3.082,0,0,0-1.034.942,4.009,4.009,0,0,0-.4,1.163c-.038.182-.065.346-.083.463,0,.03-.008.057-.012.08h-.017V7.75s0,.006,0,.009v2.693h0a1.009,1.009,0,0,1-.328.707,1.07,1.07,0,0,1-1.771-.779h0v-.355a2.4,2.4,0,0,1-.809.138,1.775,1.775,0,0,1-1.946-1.526A1.775,1.775,0,0,1,12.809,7.11a2.4,2.4,0,0,1,.809.138V4.686l-.986-.68,1.62-.814a.336.336,0,0,0,.045-.577L10.7.064A.349.349,0,0,0,10.3.063Zm9.406,5.275a.74.74,0,0,1,.25.088.548.548,0,0,1,.245.247.822.822,0,0,1,.074.382.711.711,0,0,1-.151.325.634.634,0,0,1-.243.224.864.864,0,0,1-.362.064.82.82,0,0,1-.477-.252,2.254,2.254,0,0,1-.2-.208c-.025-.029-.044-.052-.056-.068l-.013-.017,0,0h0l-.293.208.284-.2.009-.007h0Zm0,0,.625-.521-.625.521ZM1.3,5.355l.939.783h0l.015.011.278.2-.293-.208h0l0,0-.013.017c-.012.016-.031.039-.056.068a2.263,2.263,0,0,1-.2.208.82.82,0,0,1-.477.252.864.864,0,0,1-.362-.064A.634.634,0,0,1,.877,6.4a.711.711,0,0,1-.151-.325A.822.822,0,0,1,.8,5.69a.548.548,0,0,1,.245-.247A.74.74,0,0,1,1.3,5.355Zm0,0h0L.67,4.834Z" transform="translate(0 0)" fill="#fff" fill-rule="evenodd"/>
      <path id="Path_2-2" data-name="Path 2" d="M24.928,25.238a.689.689,0,1,1-.689-.678A.684.684,0,0,1,24.928,25.238Z" transform="translate(-15.822 -16.5)" fill="#fff"/>
      <path id="Path_3-2" data-name="Path 3" d="M36.94,25.916a.678.678,0,1,0-.689-.678A.684.684,0,0,0,36.94,25.916Z" transform="translate(-24.355 -16.5)" fill="#fff"/>
    </g>
  </g>
</svg>
