<svg width="24" height="24" viewBox="0 0 24 24" fill="none" xmlns="http://www.w3.org/2000/svg">
<path fill-rule="evenodd" clip-rule="evenodd" d="M11.7709 0.0770742L7.62835 3.18655C7.38776 3.36714 7.41569 3.7514 7.67959 3.89157L9.56649 4.89378L8.39846 5.71142V8.85C8.69018 8.73242 9.01729 8.66652 9.3628 8.66652C10.591 8.66652 11.5867 9.49921 11.5867 10.5264C11.5867 11.5535 10.591 12.3862 9.3628 12.3862C9.01729 12.3862 8.69018 12.3203 8.39846 12.2028V12.6732L8.39618 12.6733C8.40719 13.0015 8.29359 13.3208 8.08036 13.5611C7.86712 13.8013 7.57173 13.9428 7.25916 13.9544C6.94659 13.9659 6.64245 13.8467 6.41363 13.6228C6.18482 13.3989 6.05009 13.0887 6.03908 12.7605L6.03679 12.7606V9.47856L6.03681 9.47629L6.03683 9.47226C6.03682 9.47064 6.03681 9.46903 6.03679 9.46742V9.28647H6.01785C6.01559 9.26892 6.01309 9.2499 6.01034 9.22953L6.00985 9.22592C6.00822 9.21386 6.00651 9.20134 6.0047 9.18838C5.98473 9.04499 5.95382 8.84614 5.90994 8.62383C5.82503 8.19374 5.68163 7.62172 5.44808 7.20609C5.16499 6.70232 4.65089 6.30786 4.26625 6.05827C3.76648 5.73398 3.19656 5.62876 2.66237 5.62876H1.88517C1.55932 5.62876 1.13808 5.65563 0.766184 5.89219C0.550066 6.02965 0.268494 6.26551 0.138461 6.6359C0.0356399 6.92877 -0.0234401 7.21026 0.00883385 7.50173C0.0414105 7.79594 0.161245 8.04877 0.325248 8.29517C0.488564 8.54054 0.678719 8.7302 0.92162 8.85324C1.16006 8.97402 1.41541 9.0132 1.68061 9.01777C2.15492 9.02594 2.55869 8.71019 2.79447 8.48559C2.92318 8.36299 3.02852 8.24146 3.10147 8.15113C3.13821 8.10564 3.1674 8.06722 3.18794 8.03942C3.19823 8.0255 3.20638 8.01418 3.21227 8.0059L3.21611 8.00049L3.2194 7.99579L3.22167 7.99254L3.22247 7.99137L3.22279 7.99091L3.22293 7.99071C3.22299 7.99062 3.22305 7.99053 2.88791 7.73659L3.22305 7.99053C3.35662 7.79618 3.31484 7.52493 3.12974 7.38468C2.94487 7.2446 2.68695 7.28819 2.55325 7.48195L1.48051 6.52765C1.59655 6.50522 1.73044 6.49669 1.88517 6.49669H2.66237C3.10074 6.49669 3.50416 6.58405 3.83172 6.7966C4.19487 7.03224 4.56072 7.33491 4.73618 7.64715C4.89578 7.93117 5.01806 8.38208 5.10056 8.79999C5.14037 9.00167 5.16859 9.18311 5.18682 9.31398C5.19591 9.37927 5.20247 9.43159 5.2067 9.46711C5.20814 9.47918 5.2093 9.48929 5.21021 9.49731V12.8822H5.21639C5.25569 13.4069 5.48079 13.8986 5.84904 14.2589C6.23853 14.64 6.75626 14.8431 7.28833 14.8234C7.8204 14.8037 8.32323 14.5629 8.6862 14.1539C8.94207 13.8656 9.11366 13.5104 9.18608 13.1302H9.93354V19.2425C9.90028 19.5923 9.79548 19.9328 9.62389 20.2397C9.36284 20.7066 8.96187 21.0696 8.4836 21.272C8.00533 21.4744 7.47669 21.5048 6.98025 21.3584C6.48381 21.212 6.04751 20.8971 5.7395 20.4629C5.43149 20.0286 5.26911 19.4995 5.27772 18.9581C5.28632 18.4168 5.46543 17.8936 5.78708 17.4704C6.10872 17.0473 6.55479 16.7478 7.05561 16.6189C7.41726 16.5258 7.79276 16.5255 8.15109 16.6149C8.38063 16.6722 8.63275 16.5743 8.7282 16.3477C8.82364 16.1211 8.72651 15.853 8.49993 15.784C7.9656 15.6211 7.39738 15.6072 6.8522 15.7476C6.16803 15.9237 5.55867 16.3327 5.11927 16.9108C4.67988 17.489 4.43519 18.2036 4.42343 18.9432C4.41167 19.6827 4.6335 20.4055 5.05427 20.9988C5.47504 21.592 6.07106 22.0221 6.74925 22.2221C7.42744 22.4221 8.1496 22.3806 8.80297 22.1041C9.45633 21.8277 10.0041 21.3318 10.3607 20.6939C10.6022 20.262 10.7468 19.7815 10.7876 19.2884H10.7995V13.1302H11.5473V23.5867C11.5473 23.815 11.7236 24 11.941 24H12.0197C12.2371 24 12.4133 23.815 12.4133 23.5867V13.1302H13.1218V19.2884H13.1337C13.1745 19.7815 13.3191 20.262 13.5606 20.6939C13.9172 21.3318 14.4649 21.8277 15.1183 22.1041C15.7717 22.3806 16.4938 22.4221 17.172 22.2221C17.8502 22.0221 18.4462 21.592 18.867 20.9988C19.2878 20.4055 19.5096 19.6827 19.4978 18.9432C19.4861 18.2036 19.2414 17.489 18.802 16.9108C18.3626 16.3327 17.7532 15.9237 17.0691 15.7476C16.5239 15.6072 15.9557 15.6211 15.4213 15.784C15.1948 15.853 15.0976 16.1211 15.1931 16.3477C15.2885 16.5743 15.5406 16.6722 15.7702 16.6149C16.1285 16.5255 16.504 16.5258 16.8657 16.6189C17.3665 16.7478 17.8126 17.0473 18.1342 17.4704C18.4558 17.8936 18.6349 18.4168 18.6436 18.9581C18.6522 19.4995 18.4898 20.0286 18.1818 20.4629C17.8738 20.8971 17.4375 21.212 16.941 21.3584C16.4446 21.5048 15.9159 21.4744 15.4377 21.272C14.9594 21.0696 14.5584 20.7066 14.2974 20.2397C14.1258 19.9328 14.021 19.5923 13.9877 19.2425V13.1302H14.818C14.8926 13.5026 15.0626 13.8502 15.3138 14.1333C15.6768 14.5422 16.1796 14.783 16.7117 14.8027C17.2437 14.8224 17.7615 14.6194 18.151 14.2382C18.5192 13.8779 18.7443 13.3863 18.7836 12.8615H18.7898V9.47664C18.7907 9.46863 18.7919 9.45851 18.7933 9.44644C18.7975 9.41093 18.8041 9.35861 18.8132 9.29332C18.8314 9.16244 18.8596 8.98101 18.8994 8.77933C18.9819 8.36141 19.1042 7.91051 19.2638 7.62648C19.4393 7.31425 19.8051 7.01158 20.1683 6.77594C20.4958 6.56339 20.8993 6.47602 21.3376 6.47602H22.1148C22.2696 6.47602 22.4035 6.48456 22.5195 6.50699L21.4468 7.46128C21.3131 7.26753 21.0551 7.22394 20.8703 7.36402C20.6852 7.50426 20.6434 7.77551 20.7769 7.96987L21.1121 7.71593C20.7769 7.96987 20.777 7.96996 20.7771 7.97005L20.7772 7.97025L20.7775 7.97071L20.7783 7.97187L20.7806 7.97513L20.7834 7.97916L20.7877 7.98523C20.7936 7.99351 20.8018 8.00483 20.8121 8.01875C20.8326 8.04655 20.8618 8.08497 20.8985 8.13047C20.9715 8.22079 21.0768 8.34232 21.2055 8.46493C21.4413 8.68952 21.8451 9.00528 22.3194 8.99711C22.5846 8.99253 22.8399 8.95336 23.0784 8.83258C23.3213 8.70954 23.5114 8.51987 23.6747 8.27451C23.8388 8.0281 23.9586 7.77527 23.9912 7.48106C24.0234 7.1896 23.9644 6.9081 23.8615 6.61523C23.7315 6.24485 23.4499 6.00899 23.2338 5.87153C22.8619 5.63497 22.4407 5.60809 22.1148 5.60809H21.3376C20.8034 5.60809 20.2335 5.71332 19.7337 6.03761C19.3491 6.28719 18.835 6.68166 18.5519 7.18542C18.3184 7.60106 18.175 8.17307 18.0901 8.60317C18.0462 8.82548 18.0153 9.02433 17.9953 9.16772C17.9902 9.20404 17.9859 9.23691 17.9822 9.26581H17.9632V9.44675C17.9632 9.45048 17.9632 9.4542 17.9632 9.4579V12.7399L17.9609 12.7398C17.9499 13.068 17.8152 13.3782 17.5864 13.6021C17.3576 13.826 17.0534 13.9453 16.7408 13.9337C16.4283 13.9221 16.1329 13.7807 15.9196 13.5404C15.7064 13.3002 15.5928 12.9808 15.6038 12.6526L15.5622 12.6511V12.2182C15.2805 12.3261 14.9672 12.3862 14.6372 12.3862C13.409 12.3862 12.4133 11.5535 12.4133 10.5264C12.4133 9.49921 13.409 8.66652 14.6372 8.66652C14.9672 8.66652 15.2805 8.72665 15.5622 8.83454V5.71142L14.435 4.88292L16.2868 3.89108C16.5491 3.75057 16.577 3.36844 16.3381 3.18764L12.2299 0.0780328C12.093 -0.0256558 11.9082 -0.0260443 11.7709 0.0770742ZM22.5197 6.50703C22.6304 6.52845 22.7248 6.56251 22.8055 6.61387C22.9537 6.70814 23.0501 6.81321 23.086 6.91544C23.1667 7.14526 23.1813 7.27981 23.1701 7.38083C23.1592 7.47911 23.1184 7.59522 22.9972 7.77731C22.894 7.93239 22.8051 8.00736 22.7192 8.05085C22.6289 8.0966 22.5058 8.12584 22.3058 8.12929C22.1691 8.13165 21.9726 8.02377 21.7609 7.82209C21.6659 7.73157 21.5856 7.63931 21.529 7.56912C21.5009 7.53437 21.4793 7.50585 21.4652 7.48678C21.4582 7.47727 21.453 7.47017 21.45 7.46588L21.4479 7.46298L21.4472 7.46199L21.1121 7.71593C21.3403 7.54303 21.4131 7.48782 21.4363 7.47016C21.4472 7.46188 21.4471 7.46185 21.4471 7.46183L21.447 7.46169L22.5197 6.50703ZM22.5197 6.50703L23.2338 5.87153L22.5195 6.50699L22.5197 6.50703ZM1.48027 6.5277L2.55297 7.48235L2.55287 7.48249C2.55285 7.48252 2.55283 7.48255 2.57019 7.49575C2.5994 7.51794 2.67775 7.57736 2.88791 7.73659L2.55276 7.48265L2.55206 7.48365L2.55 7.48655C2.54696 7.49083 2.54185 7.49793 2.53482 7.50745C2.52073 7.52652 2.4991 7.55503 2.47103 7.58979C2.41436 7.65997 2.33413 7.75223 2.23909 7.84276C2.02737 8.04443 1.83088 8.15231 1.69418 8.14996C1.49415 8.1465 1.37108 8.11726 1.28077 8.07152C1.19491 8.02803 1.10599 7.95306 1.00276 7.79797C0.881567 7.61589 0.840767 7.49977 0.829886 7.4015C0.818701 7.30047 0.833339 7.16592 0.914023 6.9361C0.949913 6.83388 1.04625 6.7288 1.19445 6.63454C1.27521 6.58317 1.36962 6.54911 1.48027 6.5277ZM1.48027 6.5277L1.48051 6.52765L0.766184 5.89219L1.48027 6.5277Z" fill="white"/>
<path d="M10.4059 10.6504C10.4059 11.1069 10.0534 11.477 9.61865 11.477C9.18388 11.477 8.83143 11.1069 8.83143 10.6504C8.83143 10.1938 9.18388 9.82376 9.61865 9.82376C10.0534 9.82376 10.4059 10.1938 10.4059 10.6504Z" fill="white"/>
<path d="M14.3813 11.477C14.8161 11.477 15.1686 11.1069 15.1686 10.6504C15.1686 10.1938 14.8161 9.82376 14.3813 9.82376C13.9466 9.82376 13.5941 10.1938 13.5941 10.6504C13.5941 11.1069 13.9466 11.477 14.3813 11.477Z" fill="white"/>
</svg>
