<svg xmlns="http://www.w3.org/2000/svg" width="64" height="64" viewBox="0 0 64 64">
  <g id="squid-pool" transform="translate(-940 -769)">
    <g id="squid" transform="translate(940 771)">
      <path id="Path_1" data-name="Path 1" d="M31.389.193,20.342,7.966a1.025,1.025,0,0,0,.137,1.763l5.032,2.506L22.4,14.278v7.847a7.283,7.283,0,0,1,2.572-.459c3.275,0,5.93,2.082,5.93,4.65s-2.655,4.65-5.93,4.65a7.286,7.286,0,0,1-2.572-.459v1.176H22.39a3.068,3.068,0,0,1-.842,2.22,3.18,3.18,0,0,1-4.445.154,3.075,3.075,0,0,1-1-2.156H16.1V23.681s0-.008,0-.012v-.452h-.051q-.009-.066-.02-.142v-.009l-.014-.094c-.053-.359-.136-.856-.253-1.411a12.217,12.217,0,0,0-1.232-3.544,9.392,9.392,0,0,0-3.151-2.869A8.165,8.165,0,0,0,7.1,14.072H5.027a5.732,5.732,0,0,0-2.984.659A3.8,3.8,0,0,0,.369,16.59a4.574,4.574,0,0,0-.346,2.165,4.263,4.263,0,0,0,.844,1.984,4.1,4.1,0,0,0,1.59,1.4,4.813,4.813,0,0,0,2.024.411,4.585,4.585,0,0,0,2.97-1.33,9.076,9.076,0,0,0,.819-.836c.1-.114.176-.21.231-.279l.065-.084L8.576,20l.009-.012.006-.008,0,0h0L7.7,19.341l.894.635a1.074,1.074,0,0,0-.249-1.515,1.113,1.113,0,0,0-1.537.243L3.948,16.319a6.152,6.152,0,0,1,1.079-.077H7.1a5.955,5.955,0,0,1,3.118.75,7.326,7.326,0,0,1,2.412,2.126A10.235,10.235,0,0,1,13.6,22c.106.5.181.958.23,1.285.024.163.042.294.053.383,0,.03.007.055.009.075v8.462h.017A5.238,5.238,0,0,0,15.6,35.647a5.413,5.413,0,0,0,7.566-.263A5.241,5.241,0,0,0,24.5,32.825h1.993V48.106a6.06,6.06,0,0,1-.826,2.493,6.2,6.2,0,0,1-3.041,2.581,6.316,6.316,0,0,1-4.009.216,6.227,6.227,0,0,1-3.309-2.239,6.051,6.051,0,0,1,.127-7.481,6.235,6.235,0,0,1,3.383-2.129,6.318,6.318,0,0,1,2.921-.01,1.331,1.331,0,0,0,1.539-.668,1.009,1.009,0,0,0-.609-1.409,8.632,8.632,0,0,0-4.394-.091,8.518,8.518,0,0,0-4.621,2.908,8.266,8.266,0,0,0-.173,10.22A8.505,8.505,0,0,0,18,55.555a8.629,8.629,0,0,0,5.477-.3,8.465,8.465,0,0,0,4.154-3.526,8.277,8.277,0,0,0,1.138-3.514v-.055L28.8,32.825h1.994V58.967A1.042,1.042,0,0,0,31.843,60h.21a1.042,1.042,0,0,0,1.05-1.033V32.825h1.889v15.4h.032a8.279,8.279,0,0,0,1.138,3.514,8.465,8.465,0,0,0,4.154,3.526,8.629,8.629,0,0,0,5.477.3,8.506,8.506,0,0,0,4.52-3.058,8.266,8.266,0,0,0-.173-10.22,8.518,8.518,0,0,0-4.621-2.908,8.632,8.632,0,0,0-4.394.091,1.009,1.009,0,0,0-.609,1.409,1.331,1.331,0,0,0,1.539.668,6.319,6.319,0,0,1,2.921.01,6.235,6.235,0,0,1,3.383,2.129,6.051,6.051,0,0,1,.127,7.481A6.226,6.226,0,0,1,45.176,53.4a6.317,6.317,0,0,1-4.009-.216A6.2,6.2,0,0,1,38.126,50.6a6.061,6.061,0,0,1-.826-2.493V32.825h2.214a5.241,5.241,0,0,0,1.322,2.508A5.413,5.413,0,0,0,48.4,35.6a5.238,5.238,0,0,0,1.687-3.442h.016V23.692c0-.02.006-.045.009-.076.011-.089.029-.22.053-.383.049-.327.124-.781.23-1.285a10.236,10.236,0,0,1,.972-2.882,7.326,7.326,0,0,1,2.412-2.126,5.956,5.956,0,0,1,3.118-.75h2.073a6.143,6.143,0,0,1,1.079.077l-2.861,2.386a1.113,1.113,0,0,0-1.537-.243,1.074,1.074,0,0,0-.249,1.515l.894-.635-.893.635h0l0,0,.006.008.008.01.011.015.065.084c.055.069.133.166.231.279a9.066,9.066,0,0,0,.819.836,4.585,4.585,0,0,0,2.97,1.33,4.813,4.813,0,0,0,2.024-.411,4.1,4.1,0,0,0,1.59-1.4,4.263,4.263,0,0,0,.844-1.984,4.573,4.573,0,0,0-.346-2.165,3.8,3.8,0,0,0-1.674-1.859,5.732,5.732,0,0,0-2.984-.659H56.9a8.165,8.165,0,0,0-4.277,1.074,9.392,9.392,0,0,0-3.151,2.87,12.216,12.216,0,0,0-1.232,3.544c-.117.556-.2,1.053-.253,1.411-.014.091-.025.173-.035.245H47.9v.452c0,.009,0,.019,0,.028V31.85H47.9a3.075,3.075,0,0,1-1,2.156,3.259,3.259,0,0,1-5.4-2.374V30.546a7.307,7.307,0,0,1-2.467.42c-3.275,0-5.93-2.082-5.93-4.65s2.655-4.65,5.93-4.65a7.307,7.307,0,0,1,2.467.42V14.278l-3.006-2.071,4.938-2.48a1.025,1.025,0,0,0,.137-1.759L32.613.2A1.063,1.063,0,0,0,31.389.193ZM60.053,16.268a2.254,2.254,0,0,1,.762.267,1.67,1.67,0,0,1,.748.754,2.506,2.506,0,0,1,.224,1.163,2.167,2.167,0,0,1-.461.991,1.933,1.933,0,0,1-.741.684,2.633,2.633,0,0,1-1.1.2,2.5,2.5,0,0,1-1.453-.768,6.87,6.87,0,0,1-.618-.632c-.075-.087-.133-.158-.17-.206l-.041-.052-.006-.007,0,0-.894.635.864-.614.029-.021h0Zm0,0,1.9-1.589-1.9,1.589Zm-56.105.052,2.861,2.387h0l.046.033.847.6-.894-.635,0,0-.005.007-.04.052c-.038.048-.1.119-.17.206a6.9,6.9,0,0,1-.618.632,2.5,2.5,0,0,1-1.453.768,2.633,2.633,0,0,1-1.1-.2,1.933,1.933,0,0,1-.741-.684,2.166,2.166,0,0,1-.461-.991,2.506,2.506,0,0,1,.224-1.163,1.671,1.671,0,0,1,.748-.754A2.256,2.256,0,0,1,3.947,16.319Zm0,0h0l-1.9-1.589Z" fill="#fff" fill-rule="evenodd"/>
      <path id="Path_2" data-name="Path 2" d="M27.749,26.626a2.1,2.1,0,1,1-2.1-2.066A2.083,2.083,0,0,1,27.749,26.626Z" fill="#fff"/>
      <path id="Path_3" data-name="Path 3" d="M38.35,28.692a2.067,2.067,0,1,0-2.1-2.066A2.083,2.083,0,0,0,38.35,28.692Z" fill="#fff"/>
    </g>
    <rect id="Rectangle_1" data-name="Rectangle 1" width="64" height="64" transform="translate(940 769)" fill="none"/>
  </g>
</svg>
