<svg width="310" height="302" viewBox="0 0 310 302" fill="none" xmlns="http://www.w3.org/2000/svg">
<path fill-rule="evenodd" clip-rule="evenodd" d="M182.979 32.4001L132.268 51.9967C129.323 53.1349 128.62 57.0077 130.979 59.1022L147.845 74.0789L133.698 79.0201L125.609 110.039C128.919 109.661 132.461 109.889 136.022 110.818C148.681 114.119 156.798 125.025 154.15 135.176C151.503 145.328 139.095 150.881 126.435 147.58C122.874 146.651 119.672 145.121 116.968 143.174L115.756 147.824L115.732 147.818C115 151.092 113.006 153.943 110.189 155.744C107.372 157.545 103.963 158.149 100.711 157.424C97.4596 156.698 94.6322 154.701 92.8509 151.874C91.0696 149.046 90.4803 145.618 91.2126 142.345L91.1889 142.34L99.6475 109.903L99.6536 109.881L99.6641 109.841C99.6682 109.825 99.6723 109.809 99.6762 109.793L100.143 108.005L99.9473 107.954C99.9693 107.774 99.9925 107.58 100.017 107.371L100.021 107.334C100.035 107.21 100.05 107.082 100.065 106.949C100.228 105.478 100.422 103.43 100.543 101.115C100.776 96.6361 100.772 90.5974 99.4364 85.8619C97.817 80.1222 93.5347 74.8419 90.2134 71.3413C85.898 66.7931 80.2949 64.2212 74.789 62.7854L66.7784 60.6964C63.4198 59.8206 59.0088 58.954 54.5659 60.2922C51.9841 61.0699 48.474 62.6442 46.1792 65.9552C44.3646 68.5733 43.0302 71.1965 42.6116 74.1638C42.1891 77.1591 42.7727 79.9799 43.828 82.8559C44.879 85.7199 46.3501 88.1054 48.5366 89.9743C50.6829 91.8089 53.2139 92.8824 55.9355 93.6404C60.8032 94.9961 65.7787 92.9607 68.7877 91.3748C70.4304 90.509 71.8293 89.5911 72.814 88.8944C73.3099 88.5436 73.7099 88.2424 73.9932 88.0228C74.1351 87.9129 74.2483 87.8229 74.3304 87.7569L74.3838 87.7137L74.4299 87.6762L74.4617 87.6501L74.4729 87.6408L74.4774 87.6371L74.4793 87.6355C74.4793 87.6355 74.4811 87.634 71.6812 84.2235L74.4811 87.634C76.3587 86.0722 76.6272 83.2792 75.0808 81.3956C73.5364 79.5143 70.7656 79.2518 68.8881 80.8073L60.2908 68.4926C61.5446 68.5828 62.9466 68.8584 64.5415 69.2743L72.5521 71.3633C77.0705 72.5415 81.0034 74.4893 83.8318 77.4704C86.9675 80.7753 89.9583 84.75 90.962 88.3074C91.875 91.5434 91.9733 96.3284 91.7465 100.68C91.6371 102.781 91.4603 104.65 91.3109 105.992C91.2364 106.662 91.1691 107.197 91.1212 107.559C91.1049 107.682 91.0908 107.785 91.0795 107.867L82.3557 141.32L82.4195 141.336C81.4721 146.628 82.5252 152.092 85.3921 156.643C88.4243 161.457 93.2372 164.855 98.7721 166.091C104.307 167.326 110.11 166.298 114.905 163.231C118.286 161.07 120.97 158.02 122.696 154.457L130.4 156.466L114.647 216.875C113.403 220.243 111.445 223.326 108.886 225.898C104.992 229.811 99.9232 232.321 94.472 233.035C89.0208 233.75 83.4938 232.629 78.7542 229.848C74.0146 227.067 70.3292 222.782 68.2737 217.663C66.2181 212.543 65.9081 206.878 67.3921 201.55C68.8761 196.223 72.0705 191.534 76.4764 188.216C80.8823 184.898 86.2516 183.138 91.7459 183.21C95.7133 183.262 99.5846 184.268 103.047 186.115C105.266 187.299 108.117 187.008 109.684 185.026C111.252 183.043 110.942 180.132 108.784 178.841C103.697 175.795 97.8759 174.131 91.895 174.052C84.3894 173.953 77.0544 176.358 71.0355 180.891C65.0166 185.423 60.6528 191.829 58.6256 199.106C56.5983 206.384 57.0218 214.124 59.8298 221.117C62.6379 228.111 67.6725 233.964 74.1472 237.764C80.6219 241.563 88.1723 243.094 95.6191 242.118C103.066 241.141 109.99 237.713 115.31 232.367C118.912 228.748 121.641 224.387 123.332 219.624L123.388 219.408L139.326 158.794L147.034 160.804L120.085 264.146C119.496 266.402 120.836 268.705 123.076 269.289L123.888 269.501C126.128 270.085 128.422 268.73 129.01 266.474L155.959 163.131L163.262 165.036L147.391 225.898L147.514 225.93C146.663 230.912 146.915 236.05 148.291 240.968C150.322 248.231 154.69 254.604 160.712 259.092C166.734 263.581 174.07 265.932 181.576 265.778C189.081 265.625 196.333 262.975 202.199 258.244C208.065 253.512 212.214 246.965 213.999 239.624C215.784 232.283 215.104 224.563 212.065 217.668C209.026 210.773 203.799 205.093 197.201 201.513C191.944 198.661 186.051 197.271 180.124 197.445C177.611 197.518 175.919 199.907 176.318 202.402C176.718 204.898 179.065 206.544 181.578 206.594C185.502 206.673 189.371 207.686 192.859 209.578C197.689 212.198 201.515 216.357 203.739 221.404C205.964 226.451 206.462 232.102 205.155 237.476C203.849 242.849 200.811 247.642 196.517 251.106C192.224 254.569 186.915 256.509 181.421 256.621C175.927 256.734 170.556 255.013 166.148 251.727C161.74 248.441 158.543 243.776 157.056 238.46C156.078 234.965 155.875 231.319 156.434 227.772L172.187 167.363L180.745 169.595C180.554 173.476 181.41 177.368 183.27 180.841C185.957 185.859 190.519 189.59 195.953 191.215C201.386 192.84 207.245 192.224 212.242 189.505C216.967 186.933 220.554 182.679 222.311 177.599L222.375 177.616L231.099 144.162C231.129 144.086 231.167 143.989 231.213 143.873C231.348 143.534 231.55 143.034 231.812 142.414C232.337 141.169 233.096 139.452 234.026 137.566C235.953 133.657 238.376 129.529 240.753 127.151C243.366 124.537 247.917 122.529 252.267 121.176C256.191 119.956 260.575 120.177 265.093 121.355L273.104 123.444C274.698 123.86 276.057 124.304 277.195 124.838L263.678 131.386C262.8 129.112 260.254 127.988 257.987 128.875C255.718 129.764 254.588 132.332 255.464 134.612L259.573 133.003C255.464 134.612 255.465 134.614 255.465 134.614L255.466 134.617L255.468 134.622L255.473 134.636L255.488 134.674L255.507 134.721L255.535 134.793C255.575 134.891 255.63 135.024 255.7 135.19C255.84 135.52 256.042 135.978 256.303 136.526C256.822 137.615 257.595 139.099 258.605 140.657C260.457 143.51 263.805 147.716 268.715 148.91C271.46 149.578 274.193 149.877 276.962 149.324C279.782 148.761 282.231 147.398 284.547 145.412C286.872 143.417 288.759 141.241 289.853 138.421C290.937 135.627 291.053 132.686 290.748 129.515C290.363 125.505 288.068 122.417 286.195 120.478C282.972 117.14 278.699 115.742 275.341 114.867L267.33 112.778C261.824 111.342 255.678 110.85 249.692 112.711C245.084 114.144 238.768 116.661 234.552 120.879C231.074 124.359 228.121 129.627 226.138 133.649C225.112 135.728 224.281 137.61 223.706 138.974C223.56 139.319 223.43 139.632 223.318 139.908L223.122 139.857L222.656 141.645C222.646 141.682 222.636 141.719 222.627 141.755L214.169 174.192L214.145 174.185C213.186 177.399 210.998 180.102 208.062 181.7C205.127 183.298 201.685 183.659 198.493 182.705C195.301 181.75 192.621 179.558 191.042 176.61C189.464 173.663 188.687 170.089 189.646 166.875L189.65 166.86L190.766 162.582C187.584 162.891 184.201 162.644 180.799 161.757C168.139 158.455 160.023 147.55 162.67 137.398C165.317 127.246 177.726 121.693 190.385 124.994C193.787 125.882 196.861 127.318 199.486 129.141L207.535 98.2751L198.053 87.0573L219.696 82.2323C222.762 81.5488 224.034 77.8471 222.038 75.4181L187.709 33.6435C186.564 32.2505 184.661 31.7502 182.979 32.4001ZM277.197 124.839C278.282 125.348 279.168 125.939 279.868 126.663C281.152 127.993 281.874 129.291 281.981 130.397C282.22 132.886 282.024 134.255 281.649 135.223C281.283 136.165 280.563 137.203 278.845 138.677C277.381 139.932 276.271 140.434 275.275 140.633C274.226 140.842 272.882 140.801 270.811 140.297C269.396 139.953 267.649 138.359 265.986 135.796C265.24 134.646 264.651 133.519 264.248 132.673C264.048 132.254 263.899 131.914 263.803 131.688C263.755 131.575 263.72 131.491 263.7 131.44L263.686 131.406L263.682 131.394L259.573 133.003C262.37 131.908 263.263 131.558 263.548 131.446C263.681 131.393 263.681 131.392 263.681 131.392L263.68 131.391L277.197 124.839ZM277.197 124.839L286.195 120.478L277.195 124.838L277.197 124.839ZM60.2883 68.4924L68.8842 80.8106L68.8828 80.8117C68.8828 80.8117 68.8822 80.8122 69.0272 80.9893C69.271 81.2871 69.9255 82.0849 71.6812 84.2235L68.8813 80.813L68.8715 80.8209L68.8428 80.8441C68.8004 80.8782 68.7294 80.9347 68.6325 81.0098C68.4381 81.1604 68.1417 81.3841 67.7628 81.6521C66.9978 82.1934 65.9331 82.8896 64.7202 83.5288C62.0182 84.9529 59.7149 85.491 58.312 85.1002C56.2592 84.5285 55.066 83.9087 54.253 83.2138C53.4802 82.5533 52.7569 81.5733 52.0926 79.7631C51.3128 77.6378 51.1915 76.3806 51.3326 75.3801C51.4777 74.3516 51.9753 73.0612 53.3993 71.0067C54.0327 70.0929 55.2965 69.3134 57.0669 68.7801C58.0316 68.4895 59.0925 68.4066 60.2883 68.4924ZM60.2883 68.4924L60.2908 68.4926L54.5659 60.2922L60.2883 68.4924Z" fill="#19649B"/>
<path d="M141.66 133.228C140.483 137.74 135.897 140.45 131.416 139.281C126.934 138.113 124.255 133.508 125.432 128.996C126.609 124.484 131.195 121.774 135.676 122.942C140.158 124.111 142.837 128.716 141.66 133.228Z" fill="#19649B"/>
<path d="M180.505 152.083C184.986 153.251 189.573 150.541 190.749 146.029C191.926 141.517 189.247 136.912 184.766 135.744C180.285 134.575 175.698 137.285 174.522 141.797C173.345 146.309 176.024 150.914 180.505 152.083Z" fill="#19649B"/>
</svg>
